<svg width="478" height="168" viewBox="0 0 478 168" fill="none" xmlns="http://www.w3.org/2000/svg">
<path d="M0 131.105V105.812L76.6784 2.78452H116.179L41.1275 105.812L22.7712 100.475H150.801V131.105H0ZM87.5993 165.215V131.105L88.761 100.475V70.0773H124.312V165.215H87.5993Z" fill="#EEF0F3"/>
<path d="M236.414 168C223.092 168 211.164 164.751 200.631 158.254C190.097 151.602 181.81 142.011 175.768 129.481C169.727 116.95 166.706 101.79 166.706 84C166.706 66.2099 169.727 51.0497 175.768 38.5193C181.81 25.9889 190.097 16.4751 200.631 9.9779C211.164 3.32596 223.092 0 236.414 0C249.891 0 261.819 3.32596 272.197 9.9779C282.731 16.4751 291.018 25.9889 297.06 38.5193C303.101 51.0497 306.122 66.2099 306.122 84C306.122 101.79 303.101 116.95 297.06 129.481C291.018 142.011 282.731 151.602 272.197 158.254C261.819 164.751 249.891 168 236.414 168ZM236.414 136.21C242.765 136.21 248.264 134.431 252.912 130.873C257.714 127.315 261.431 121.669 264.065 113.934C266.853 106.199 268.247 96.221 268.247 84C268.247 71.779 266.853 61.8011 264.065 54.0663C261.431 46.3315 257.714 40.6851 252.912 37.1271C248.264 33.5691 242.765 31.7901 236.414 31.7901C230.218 31.7901 224.719 33.5691 219.917 37.1271C215.269 40.6851 211.552 46.3315 208.763 54.0663C206.13 61.8011 204.813 71.779 204.813 84C204.813 96.221 206.13 106.199 208.763 113.934C211.552 121.669 215.269 127.315 219.917 130.873C224.719 134.431 230.218 136.21 236.414 136.21Z" fill="#EEF0F3"/>
<path d="M327.199 131.105V105.812L403.878 2.78452H443.379L368.327 105.812L349.97 100.475H478V131.105H327.199ZM414.798 165.215V131.105L415.96 100.475V70.0773H451.511V165.215H414.798Z" fill="#EEF0F3"/>
</svg>
