<svg width="90" height="32" viewBox="0 0 90 32" fill="none" xmlns="http://www.w3.org/2000/svg">
<path d="M8.63246 12.1267H3.30468H2.02311H1.0204e-05L6.15799 0L12.0983 12.1267H10.043H8.63246Z" fill="#ED1B24"/>
<path d="M14.4249 4.27253H16.2465V4.99828C16.8806 4.3693 17.5953 4.0548 18.3905 4.0548C19.304 4.0548 20.016 4.34242 20.5265 4.91764C20.9671 5.40685 21.1874 6.20517 21.1874 7.31261V12.1267H19.3658V7.73999C19.3658 6.96586 19.2583 6.43096 19.0434 6.13528C18.8338 5.83423 18.4523 5.68371 17.8989 5.68371C17.297 5.68371 16.8698 5.88262 16.6173 6.28043C16.3701 6.67288 16.2465 7.3583 16.2465 8.33672V12.1267H14.4249V4.27253Z" fill="#222222"/>
<path d="M25.3545 5.96594V12.1267H23.541V5.96594H22.7672V4.27253H23.541V1.39372H25.3545V4.27253H26.7651V5.96594H25.3545Z" fill="#222222"/>
<path d="M27.7403 8.14319C27.7403 7.00887 28.146 6.04389 28.9574 5.24826C29.7688 4.45262 30.7575 4.0548 31.9236 4.0548C33.095 4.0548 34.0891 4.45531 34.9058 5.25632C35.7119 6.05733 36.1149 7.04113 36.1149 8.2077C36.1149 9.38503 35.7092 10.3715 34.8978 11.1671C34.081 11.9574 33.0789 12.3525 31.8913 12.3525C30.7145 12.3525 29.7285 11.9493 28.9332 11.143C28.138 10.3473 27.7403 9.34739 27.7403 8.14319Z" fill="#219653"/>
<path d="M38.0412 4.27253H39.8628V4.99828C40.4969 4.3693 41.2116 4.0548 42.0069 4.0548C42.9203 4.0548 43.6323 4.34242 44.1428 4.91764C44.5834 5.40685 44.8037 6.20517 44.8037 7.31261V12.1267H42.9821V7.73999C42.9821 6.96586 42.8747 6.43096 42.6597 6.13528C42.4502 5.83423 42.0687 5.68371 41.5152 5.68371C40.9134 5.68371 40.4862 5.88262 40.2336 6.28043C39.9864 6.67288 39.8628 7.3583 39.8628 8.33672V12.1267H38.0412V4.27253Z" fill="#222222"/>
<path d="M4.73939 17.0415V27.7261H2.86136V17.0415H0V15.2755H7.59269V17.0415H4.73939Z" fill="#222222"/>
<path d="M10.6556 26.2666L7.1252 19.8719H9.2289L11.6308 24.3877L13.8716 19.8719H15.9189L9.66415 32H7.59269L10.6556 26.2666Z" fill="#222222"/>
<path d="M17.1601 19.8719H18.9737V20.5976C19.3229 20.2321 19.6212 19.9848 19.8683 19.8558C20.1316 19.7214 20.4621 19.6542 20.8597 19.6542C21.7464 19.6542 22.4476 20.0412 22.9635 20.8154C23.533 20.0412 24.3041 19.6542 25.2767 19.6542C27.0446 19.6542 27.9285 20.7267 27.9285 22.8716V27.7261H26.1069V23.3636C26.1069 22.611 26.0156 22.0787 25.8329 21.7669C25.6448 21.4497 25.3358 21.2911 24.906 21.2911C24.4062 21.2911 24.0408 21.4793 23.8098 21.8556C23.5841 22.2319 23.4712 22.8367 23.4712 23.67V27.7261H21.6496V23.3878C21.6496 21.99 21.2466 21.2911 20.4406 21.2911C19.9301 21.2911 19.5567 21.482 19.3202 21.8637C19.0892 22.2454 18.9737 22.8475 18.9737 23.67V27.7261H17.1601V19.8719Z" fill="#222222"/>
<path d="M29.8468 23.7426C29.8468 22.6083 30.2525 21.6433 31.0639 20.8476C31.8753 20.052 32.864 19.6542 34.0301 19.6542C35.2015 19.6542 36.1956 20.0547 37.0123 20.8557C37.8184 21.6567 38.2214 22.6405 38.2214 23.8071C38.2214 24.9844 37.8157 25.9709 37.0043 26.7665C36.1875 27.5568 35.1854 27.9519 33.9978 27.9519C32.821 27.9519 31.835 27.5487 31.0398 26.7424C30.2445 25.9467 29.8468 24.9468 29.8468 23.7426Z" fill="#9B51E0"/>
<path d="M44.7098 21.2105L43.2106 22.0088C42.9742 21.525 42.6814 21.2831 42.3321 21.2831C42.1655 21.2831 42.0231 21.3395 41.9049 21.4524C41.7867 21.5599 41.7276 21.6997 41.7276 21.8717C41.7276 22.1728 42.0768 22.4711 42.7754 22.7668C43.7372 23.1808 44.3847 23.5625 44.7179 23.9119C45.051 24.2614 45.2176 24.7318 45.2176 25.3231C45.2176 26.0811 44.9382 26.7155 44.3794 27.2262C43.8366 27.71 43.1811 27.9519 42.4127 27.9519C41.0962 27.9519 40.1639 27.3095 39.6158 26.0247L41.1633 25.307C41.3783 25.6833 41.5422 25.9225 41.655 26.0247C41.8753 26.229 42.1386 26.3311 42.4449 26.3311C43.0575 26.3311 43.3638 26.0515 43.3638 25.4925C43.3638 25.1699 43.1273 24.8689 42.6545 24.5893C42.4718 24.4979 42.2891 24.4092 42.1064 24.3232C41.9237 24.2372 41.7383 24.1485 41.5502 24.0571C41.0236 23.799 40.6529 23.541 40.4379 23.2829C40.1639 22.955 40.0269 22.533 40.0269 22.0169C40.0269 21.3341 40.2606 20.7697 40.7281 20.3235C41.2063 19.8773 41.7867 19.6542 42.4691 19.6542C43.4739 19.6542 44.2209 20.1729 44.7098 21.2105Z" fill="#222222"/>
<path d="M46.8538 14.1062H48.6674V20.5251C49.3122 19.9445 50.0242 19.6542 50.8033 19.6542C51.6899 19.6542 52.3993 19.9418 52.9312 20.517C53.3826 21.017 53.6083 21.8153 53.6083 22.912V27.7261H51.7947V23.0813C51.7947 22.4523 51.6819 21.9981 51.4562 21.7185C51.2359 21.4336 50.8786 21.2911 50.3842 21.2911C49.7501 21.2911 49.3041 21.4874 49.0462 21.8798C48.7937 22.2776 48.6674 22.9604 48.6674 23.9281V27.7261H46.8538V14.1062Z" fill="#222222"/>
<path d="M63.0629 24.2264H57.4369C57.4852 24.8715 57.6948 25.3849 58.0655 25.7666C58.4363 26.1429 58.9119 26.3311 59.4922 26.3311C59.9436 26.3311 60.317 26.2236 60.6126 26.0085C60.9027 25.7935 61.2332 25.3957 61.604 24.8151L63.1354 25.6699C62.899 26.0731 62.6491 26.4198 62.3858 26.7101C62.1225 26.995 61.8404 27.2316 61.5395 27.4197C61.2386 27.6025 60.9135 27.7369 60.5642 27.8229C60.2149 27.9089 59.8361 27.9519 59.4277 27.9519C58.2563 27.9519 57.3159 27.5756 56.6067 26.823C55.8974 26.065 55.5427 25.0597 55.5427 23.8071C55.5427 22.5653 55.8866 21.5599 56.5744 20.7912C57.2676 20.0332 58.1865 19.6542 59.331 19.6542C60.4863 19.6542 61.3998 20.0224 62.0715 20.7589C62.7378 21.49 63.0709 22.5034 63.0709 23.799L63.0629 24.2264ZM61.201 22.7426C60.9484 21.775 60.3385 21.2911 59.3713 21.2911C59.151 21.2911 58.9441 21.3261 58.7507 21.396C58.5572 21.4605 58.3799 21.5572 58.2187 21.6863C58.0629 21.8099 57.9285 21.9604 57.8157 22.1378C57.7028 22.3152 57.6169 22.5168 57.5578 22.7426H61.201Z" fill="#222222"/>
<path d="M65.0537 19.8719H66.8753V20.5976C67.5094 19.9687 68.2241 19.6542 69.0193 19.6542C69.9328 19.6542 70.6448 19.9418 71.1553 20.517C71.5959 21.0062 71.8162 21.8045 71.8162 22.912V27.7261H69.9946V23.3394C69.9946 22.5653 69.8871 22.0303 69.6722 21.7346C69.4626 21.4336 69.0811 21.2831 68.5277 21.2831C67.9258 21.2831 67.4986 21.482 67.2461 21.8798C66.9989 22.2722 66.8753 22.9577 66.8753 23.9361V27.7261H65.0537V19.8719Z" fill="#222222"/>
<path d="M75.9269 14.1062V22.412L78.482 19.8719H80.9162L77.5067 23.1701L81.166 27.7261H78.8125L76.2171 24.4119L75.9269 24.7022V27.7261H74.1134V14.1062H75.9269Z" fill="#222222"/>
<path d="M81.6255 23.7426C81.6255 22.6083 82.0311 21.6433 82.8425 20.8476C83.6539 20.052 84.6427 19.6542 85.8087 19.6542C86.9801 19.6542 87.9742 20.0547 88.791 20.8557C89.597 21.6567 90 22.6405 90 23.8071C90 24.9844 89.5943 25.9709 88.7829 26.7665C87.9661 27.5568 86.964 27.9519 85.7765 27.9519C84.5997 27.9519 83.6136 27.5487 82.8184 26.7424C82.0231 25.9467 81.6255 24.9468 81.6255 23.7426Z" fill="#2F80ED"/>
</svg>
