<svg width="201" height="34" viewBox="0 0 201 34" fill="none" xmlns="http://www.w3.org/2000/svg">
<path d="M0 0H8.68165C10.6445 0 12.3724 0.368571 13.8655 1.10571C15.3753 1.82571 16.5413 2.86286 17.3633 4.21714C18.2021 5.57143 18.6215 7.16571 18.6215 9C18.6215 10.8343 18.2021 12.4286 17.3633 13.7829C16.5413 15.1371 15.3753 16.1829 13.8655 16.92C12.3724 17.64 10.6445 18 8.68165 18H0V0ZM8.43001 13.2686C9.70499 13.2686 10.7199 12.9 11.4749 12.1629C12.2466 11.4086 12.6324 10.3543 12.6324 9C12.6324 7.64571 12.2466 6.6 11.4749 5.86286C10.7199 5.10857 9.70499 4.73143 8.43001 4.73143H5.93875V13.2686H8.43001Z" fill="#222222"/>
<path d="M33.0508 14.8629H26.3571L25.1744 18H19.135L26.8353 0H32.6733L40.3736 18H34.2335L33.0508 14.8629ZM31.4151 10.4914L29.704 5.96571L27.9928 10.4914H31.4151Z" fill="#222222"/>
<path d="M51.1625 11.4686V18H45.2238V11.3914L38.5804 0H44.8463L48.4448 6.22286L52.0685 0H57.8059L51.1625 11.4686Z" fill="#222222"/>
<path d="M139.594 0H148.276C150.238 0 151.966 0.368571 153.459 1.10571C154.969 1.82571 156.135 2.86286 156.957 4.21714C157.796 5.57143 158.215 7.16571 158.215 9C158.215 10.8343 157.796 12.4286 156.957 13.7829C156.135 15.1371 154.969 16.1829 153.459 16.92C151.966 17.64 150.238 18 148.276 18H139.594V0ZM148.024 13.2686C149.299 13.2686 150.314 12.9 151.069 12.1629C151.841 11.4086 152.226 10.3543 152.226 9C152.226 7.64571 151.841 6.6 151.069 5.86286C150.314 5.10857 149.299 4.73143 148.024 4.73143H145.533V13.2686H148.024Z" fill="#222222"/>
<path d="M172.645 14.8629H165.951L164.768 18H158.729L166.429 0H172.267L179.968 18H173.828L172.645 14.8629ZM171.009 10.4914L169.298 5.96571L167.587 10.4914H171.009Z" fill="#222222"/>
<path d="M190.757 11.4686V18H184.818V11.3914L178.174 0H184.44L188.039 6.22286L191.662 0H197.4L190.757 11.4686Z" fill="#222222"/>
<path d="M94.5839 8.58857C95.624 8.98286 96.4293 9.55714 96.9996 10.3114C97.57 11.0657 97.8552 11.9743 97.8552 13.0371C97.8552 14.6143 97.2177 15.84 95.9428 16.7143C94.6678 17.5714 92.8224 18 90.4066 18H80.4919V0H89.9033C92.252 0 94.0219 0.428571 95.213 1.28571C96.4209 2.14286 97.0248 3.28286 97.0248 4.70571C97.0248 5.54571 96.8151 6.3 96.3957 6.96857C95.9931 7.63714 95.3891 8.17714 94.5839 8.58857ZM86.33 4.24286V6.91714H89.0981C90.3899 6.91714 91.0357 6.47143 91.0357 5.58C91.0357 4.68857 90.3899 4.24286 89.0981 4.24286H86.33ZM89.9033 13.7571C91.2119 13.7571 91.8662 13.2857 91.8662 12.3429C91.8662 11.4 91.2119 10.9286 89.9033 10.9286H86.33V13.7571H89.9033Z" fill="#222222"/>
<path d="M110.558 11.4686V18H104.619V11.3914L97.9757 0H104.242L107.84 6.22286L111.464 0H117.201L110.558 11.4686Z" fill="#222222"/>
<path d="M74.4162 8.99986C74.4162 12.5503 71.5996 15.4284 68.1252 15.4284C64.6507 15.4284 61.8341 12.5503 61.8341 8.99986C61.8341 5.44946 64.6507 2.57129 68.1252 2.57129C71.5996 2.57129 74.4162 5.44946 74.4162 8.99986Z" fill="#4289F4"/>
<path d="M133.519 8.99986C133.519 12.5503 130.702 15.4284 127.228 15.4284C123.753 15.4284 120.937 12.5503 120.937 8.99986C120.937 5.44946 123.753 2.57129 127.228 2.57129C130.702 2.57129 133.519 5.44946 133.519 8.99986Z" fill="#FFD233"/>
<path d="M72.0811 32.4002V26.1002H76.8331V26.8652H72.9721V28.6652H74.9341C75.6841 28.6652 76.2541 28.8212 76.6441 29.1332C77.0341 29.4452 77.2291 29.8982 77.2291 30.4922C77.2291 31.1042 77.0161 31.5752 76.5901 31.9052C76.1701 32.2352 75.5671 32.4002 74.7811 32.4002H72.0811ZM72.9721 31.6892H74.7451C75.2671 31.6892 75.6601 31.5902 75.9241 31.3922C76.1941 31.1942 76.3291 30.9002 76.3291 30.5102C76.3291 29.7542 75.8011 29.3762 74.7451 29.3762H72.9721V31.6892Z" fill="black"/>
<path d="M81.6791 32.4722C81.1991 32.4722 80.7521 32.3912 80.3381 32.2292C79.9301 32.0672 79.5761 31.8422 79.2761 31.5542C78.9761 31.2602 78.7421 30.9182 78.5741 30.5282C78.4061 30.1382 78.3221 29.7122 78.3221 29.2502C78.3221 28.7882 78.4061 28.3622 78.5741 27.9722C78.7421 27.5822 78.9761 27.2432 79.2761 26.9552C79.5761 26.6612 79.9301 26.4332 80.3381 26.2712C80.7461 26.1092 81.1931 26.0282 81.6791 26.0282C82.1591 26.0282 82.6001 26.1092 83.0021 26.2712C83.4101 26.4272 83.7641 26.6522 84.0641 26.9462C84.3701 27.2342 84.6041 27.5732 84.7661 27.9632C84.9341 28.3532 85.0181 28.7822 85.0181 29.2502C85.0181 29.7182 84.9341 30.1472 84.7661 30.5372C84.6041 30.9272 84.3701 31.2692 84.0641 31.5632C83.7641 31.8512 83.4101 32.0762 83.0021 32.2382C82.6001 32.3942 82.1591 32.4722 81.6791 32.4722ZM81.6791 31.6712C82.0271 31.6712 82.3481 31.6112 82.6421 31.4912C82.9421 31.3712 83.2001 31.2032 83.4161 30.9872C83.6381 30.7652 83.8091 30.5072 83.9291 30.2132C84.0551 29.9192 84.1181 29.5982 84.1181 29.2502C84.1181 28.9022 84.0551 28.5812 83.9291 28.2872C83.8091 27.9932 83.6381 27.7382 83.4161 27.5222C83.2001 27.3002 82.9421 27.1292 82.6421 27.0092C82.3481 26.8892 82.0271 26.8292 81.6791 26.8292C81.3251 26.8292 80.9981 26.8892 80.6981 27.0092C80.4041 27.1292 80.1461 27.3002 79.9241 27.5222C79.7021 27.7382 79.5281 27.9932 79.4021 28.2872C79.2821 28.5812 79.2221 28.9022 79.2221 29.2502C79.2221 29.5982 79.2821 29.9192 79.4021 30.2132C79.5281 30.5072 79.7021 30.7652 79.9241 30.9872C80.1461 31.2032 80.4041 31.3712 80.6981 31.4912C80.9981 31.6112 81.3251 31.6712 81.6791 31.6712Z" fill="black"/>
<path d="M89.25 32.4002V26.1002H89.988L92.814 30.8612H92.418L95.208 26.1002H95.946L95.955 32.4002H95.091L95.082 27.4592H95.289L92.805 31.6352H92.391L89.889 27.4592H90.114V32.4002H89.25Z" fill="black"/>
<path d="M98.096 32.4002V26.1002H102.848V26.8652H98.987V28.6652H100.949C101.699 28.6652 102.269 28.8212 102.659 29.1332C103.049 29.4452 103.244 29.8982 103.244 30.4922C103.244 31.1042 103.031 31.5752 102.605 31.9052C102.185 32.2352 101.582 32.4002 100.796 32.4002H98.096ZM98.987 31.6892H100.76C101.282 31.6892 101.675 31.5902 101.939 31.3922C102.209 31.1942 102.344 30.9002 102.344 30.5102C102.344 29.7542 101.816 29.3762 100.76 29.3762H98.987V31.6892Z" fill="black"/>
<path d="M107.937 31.9772C107.169 31.9772 106.512 31.8722 105.966 31.6622C105.42 31.4462 105.003 31.1342 104.715 30.7262C104.427 30.3182 104.283 29.8232 104.283 29.2412C104.283 28.6592 104.427 28.1642 104.715 27.7562C105.003 27.3482 105.42 27.0362 105.966 26.8202C106.512 26.6042 107.169 26.4962 107.937 26.4962C107.949 26.4962 107.97 26.4962 108 26.4962C108.036 26.4962 108.069 26.4962 108.099 26.4962C108.135 26.4962 108.156 26.4962 108.162 26.4962C108.93 26.4962 109.584 26.6042 110.124 26.8202C110.67 27.0362 111.087 27.3482 111.375 27.7562C111.663 28.1642 111.807 28.6592 111.807 29.2412C111.807 29.8172 111.663 30.3122 111.375 30.7262C111.093 31.1342 110.682 31.4462 110.142 31.6622C109.608 31.8722 108.96 31.9772 108.198 31.9772C108.186 31.9772 108.159 31.9772 108.117 31.9772C108.081 31.9772 108.045 31.9772 108.009 31.9772C107.973 31.9772 107.949 31.9772 107.937 31.9772ZM108.036 31.2752C108.048 31.2752 108.063 31.2752 108.081 31.2752C108.099 31.2752 108.108 31.2752 108.108 31.2752C108.72 31.2692 109.236 31.1912 109.656 31.0412C110.076 30.8852 110.394 30.6572 110.61 30.3572C110.832 30.0512 110.943 29.6762 110.943 29.2322C110.943 28.7942 110.832 28.4252 110.61 28.1252C110.388 27.8252 110.067 27.5972 109.647 27.4412C109.233 27.2852 108.726 27.2072 108.126 27.2072C108.12 27.2072 108.105 27.2072 108.081 27.2072C108.063 27.2072 108.048 27.2072 108.036 27.2072C107.418 27.2072 106.893 27.2852 106.461 27.4412C106.035 27.5912 105.711 27.8162 105.489 28.1162C105.267 28.4162 105.156 28.7912 105.156 29.2412C105.156 29.6912 105.27 30.0662 105.498 30.3662C105.726 30.6662 106.053 30.8942 106.479 31.0502C106.911 31.2002 107.43 31.2752 108.036 31.2752ZM107.631 32.6342V25.8662H108.468V32.6342H107.631Z" fill="black"/>
<path d="M116.697 31.7342L115.401 30.0152L116.697 28.2872H117.489L116.22 30.0152L117.489 31.7342H116.697ZM118.425 31.7342L117.129 30.0152L118.425 28.2872H119.217L117.948 30.0152L119.217 31.7342H118.425Z" fill="black"/>
<path d="M124.868 31.9772V26.8832H122.105L122.06 28.2062C122.042 28.6502 122.012 29.0762 121.97 29.4842C121.934 29.8922 121.88 30.2612 121.808 30.5912C121.736 30.9152 121.634 31.1822 121.502 31.3922C121.376 31.6022 121.214 31.7312 121.016 31.7792L120.044 31.6172C120.278 31.6352 120.47 31.5572 120.62 31.3832C120.776 31.2032 120.896 30.9542 120.98 30.6362C121.07 30.3122 121.136 29.9372 121.178 29.5112C121.22 29.0792 121.25 28.6172 121.268 28.1252L121.331 26.1002H125.759V31.9772H124.868ZM119.819 33.7772L119.828 31.6172H126.686V33.7772H125.849V32.4002H120.665L120.656 33.7772H119.819Z" fill="black"/>
<path d="M128.916 28.8182H132.156V29.5832H128.916V28.8182ZM128.997 31.6172H132.669V32.4002H128.097V26.1002H132.543V26.8832H128.997V31.6172Z" fill="black"/>
<path d="M138.78 26.1002H139.68V32.4002H138.78V26.1002ZM135.162 32.4002H134.262V26.1002H135.162V32.4002ZM138.861 29.5922H135.072V28.8092H138.861V29.5922Z" fill="black"/>
<path d="M144.588 28.2962C145.332 28.2962 145.905 28.4642 146.307 28.8002C146.709 29.1302 146.91 29.6252 146.91 30.2852C146.91 30.9812 146.691 31.5092 146.253 31.8692C145.821 32.2232 145.212 32.4002 144.426 32.4002H141.825V26.1002H142.716V28.2962H144.588ZM144.39 31.6892C144.912 31.6892 145.311 31.5722 145.587 31.3382C145.869 31.1042 146.01 30.7592 146.01 30.3032C146.01 29.8592 145.872 29.5322 145.596 29.3222C145.32 29.1122 144.918 29.0072 144.39 29.0072H142.716V31.6892H144.39Z" fill="black"/>
<path d="M150.325 31.7162L150.64 31.0502C150.916 31.2662 151.219 31.4282 151.549 31.5362C151.885 31.6442 152.218 31.7012 152.548 31.7072C152.878 31.7072 153.181 31.6622 153.457 31.5722C153.739 31.4822 153.964 31.3472 154.132 31.1672C154.3 30.9872 154.384 30.7652 154.384 30.5012C154.384 30.1772 154.252 29.9312 153.988 29.7632C153.73 29.5952 153.37 29.5112 152.908 29.5112H151.504V28.7822H152.845C153.247 28.7822 153.559 28.7012 153.781 28.5392C154.009 28.3712 154.123 28.1402 154.123 27.8462C154.123 27.6242 154.054 27.4382 153.916 27.2882C153.784 27.1322 153.601 27.0152 153.367 26.9372C153.139 26.8592 152.878 26.8202 152.584 26.8202C152.296 26.8142 151.999 26.8532 151.693 26.9372C151.387 27.0152 151.093 27.1412 150.811 27.3152L150.523 26.5772C150.907 26.3612 151.306 26.2112 151.72 26.1272C152.14 26.0372 152.545 26.0102 152.935 26.0462C153.325 26.0762 153.676 26.1662 153.988 26.3162C154.306 26.4602 154.558 26.6522 154.744 26.8922C154.936 27.1262 155.032 27.4082 155.032 27.7382C155.032 28.0382 154.954 28.3052 154.798 28.5392C154.642 28.7672 154.426 28.9442 154.15 29.0702C153.874 29.1902 153.553 29.2502 153.187 29.2502L153.223 29.0072C153.643 29.0072 154.006 29.0762 154.312 29.2142C154.624 29.3462 154.864 29.5352 155.032 29.7812C155.206 30.0272 155.293 30.3122 155.293 30.6362C155.293 30.9422 155.215 31.2152 155.059 31.4552C154.903 31.6892 154.69 31.8872 154.42 32.0492C154.156 32.2052 153.853 32.3192 153.511 32.3912C153.175 32.4632 152.821 32.4872 152.449 32.4632C152.077 32.4392 151.708 32.3672 151.342 32.2472C150.982 32.1272 150.643 31.9502 150.325 31.7162Z" fill="black"/>
<path d="M156.099 32.4002L158.952 26.1002H159.843L162.705 32.4002H161.76L159.213 26.6042H159.573L157.026 32.4002H156.099ZM157.314 30.8252L157.557 30.1052H161.103L161.364 30.8252H157.314Z" fill="black"/>
<path d="M170.754 31.9772V26.8832H167.991L167.946 28.2062C167.928 28.6502 167.898 29.0762 167.856 29.4842C167.82 29.8922 167.766 30.2612 167.694 30.5912C167.622 30.9152 167.52 31.1822 167.388 31.3922C167.262 31.6022 167.1 31.7312 166.902 31.7792L165.93 31.6172C166.164 31.6352 166.356 31.5572 166.506 31.3832C166.662 31.2032 166.782 30.9542 166.866 30.6362C166.956 30.3122 167.022 29.9372 167.064 29.5112C167.106 29.0792 167.136 28.6172 167.154 28.1252L167.217 26.1002H171.645V31.9772H170.754ZM165.705 33.7772L165.714 31.6172H172.572V33.7772H171.735V32.4002H166.551L166.542 33.7772H165.705Z" fill="black"/>
<path d="M178.501 26.1002H179.401V32.4002H178.501V26.1002ZM174.883 32.4002H173.983V26.1002H174.883V32.4002ZM178.582 29.5922H174.793V28.8092H178.582V29.5922Z" fill="black"/>
<path d="M182.365 28.8182H185.605V29.5832H182.365V28.8182ZM182.446 31.6172H186.118V32.4002H181.546V26.1002H185.992V26.8832H182.446V31.6172Z" fill="black"/>
<path d="M187.711 32.4002V26.1002H188.449L191.275 30.8612H190.879L193.669 26.1002H194.407L194.416 32.4002H193.552L193.543 27.4592H193.75L191.266 31.6352H190.852L188.35 27.4592H188.575V32.4002H187.711Z" fill="black"/>
<path d="M196.674 31.7342H195.882L197.151 30.0152L195.882 28.2872H196.674L197.97 30.0152L196.674 31.7342ZM198.402 31.7342H197.61L198.879 30.0152L197.61 28.2872H198.402L199.698 30.0152L198.402 31.7342Z" fill="black"/>
</svg>
