<svg width="201" height="33" viewBox="0 0 201 33" fill="none" xmlns="http://www.w3.org/2000/svg">
<path d="M0 0H8.68165C10.6445 0 12.3724 0.368571 13.8655 1.10571C15.3753 1.82571 16.5413 2.86286 17.3633 4.21714C18.2021 5.57143 18.6215 7.16571 18.6215 9C18.6215 10.8343 18.2021 12.4286 17.3633 13.7829C16.5413 15.1371 15.3753 16.1829 13.8655 16.92C12.3724 17.64 10.6445 18 8.68165 18H0V0ZM8.43 13.2686C9.70499 13.2686 10.7199 12.9 11.4749 12.1629C12.2466 11.4086 12.6324 10.3543 12.6324 9C12.6324 7.64571 12.2466 6.6 11.4749 5.86286C10.7199 5.10857 9.70499 4.73143 8.43 4.73143H5.93875V13.2686H8.43Z" fill="#222222"/>
<path d="M33.0508 14.8629H26.3571L25.1744 18H19.135L26.8353 0H32.6733L40.3736 18H34.2335L33.0508 14.8629ZM31.4151 10.4914L29.704 5.96571L27.9928 10.4914H31.4151Z" fill="#222222"/>
<path d="M51.1625 11.4686V18H45.2238V11.3914L38.5804 0H44.8463L48.4448 6.22286L52.0685 0H57.8059L51.1625 11.4686Z" fill="#222222"/>
<path d="M139.594 0H148.276C150.238 0 151.966 0.368571 153.459 1.10571C154.969 1.82571 156.135 2.86286 156.957 4.21714C157.796 5.57143 158.215 7.16571 158.215 9C158.215 10.8343 157.796 12.4286 156.957 13.7829C156.135 15.1371 154.969 16.1829 153.459 16.92C151.966 17.64 150.238 18 148.276 18H139.594V0ZM148.024 13.2686C149.299 13.2686 150.314 12.9 151.069 12.1629C151.841 11.4086 152.226 10.3543 152.226 9C152.226 7.64571 151.841 6.6 151.069 5.86286C150.314 5.10857 149.299 4.73143 148.024 4.73143H145.533V13.2686H148.024Z" fill="#222222"/>
<path d="M172.645 14.8629H165.951L164.768 18H158.729L166.429 0H172.267L179.968 18H173.828L172.645 14.8629ZM171.009 10.4914L169.298 5.96571L167.587 10.4914H171.009Z" fill="#222222"/>
<path d="M190.757 11.4686V18H184.818V11.3914L178.174 0H184.44L188.039 6.22286L191.662 0H197.4L190.757 11.4686Z" fill="#222222"/>
<path d="M94.5839 8.58857C95.624 8.98286 96.4293 9.55714 96.9996 10.3114C97.57 11.0657 97.8552 11.9743 97.8552 13.0371C97.8552 14.6143 97.2177 15.84 95.9428 16.7143C94.6678 17.5714 92.8224 18 90.4066 18H80.4919V0H89.9033C92.252 0 94.0219 0.428571 95.213 1.28571C96.4209 2.14286 97.0248 3.28286 97.0248 4.70571C97.0248 5.54571 96.8151 6.3 96.3957 6.96857C95.9931 7.63714 95.3891 8.17714 94.5839 8.58857ZM86.33 4.24286V6.91714H89.0981C90.3899 6.91714 91.0357 6.47143 91.0357 5.58C91.0357 4.68857 90.3899 4.24286 89.0981 4.24286H86.33ZM89.9033 13.7571C91.2119 13.7571 91.8662 13.2857 91.8662 12.3429C91.8662 11.4 91.2119 10.9286 89.9033 10.9286H86.33V13.7571H89.9033Z" fill="#222222"/>
<path d="M110.558 11.4686V18H104.619V11.3914L97.9757 0H104.242L107.84 6.22286L111.464 0H117.201L110.558 11.4686Z" fill="#222222"/>
<path d="M74.4163 8.99986C74.4163 12.5503 71.5997 15.4284 68.1253 15.4284C64.6508 15.4284 61.8342 12.5503 61.8342 8.99986C61.8342 5.44946 64.6508 2.57129 68.1253 2.57129C71.5997 2.57129 74.4163 5.44946 74.4163 8.99986Z" fill="#4289F4"/>
<path d="M133.519 8.99986C133.519 12.5503 130.702 15.4284 127.228 15.4284C123.753 15.4284 120.937 12.5503 120.937 8.99986C120.937 5.44946 123.753 2.57129 127.228 2.57129C130.702 2.57129 133.519 5.44946 133.519 8.99986Z" fill="#FFD233"/>
<path d="M91.53 32.4718C91.05 32.4718 90.606 32.3938 90.198 32.2378C89.796 32.0758 89.445 31.8508 89.145 31.5628C88.851 31.2688 88.62 30.9268 88.452 30.5368C88.284 30.1468 88.2 29.7178 88.2 29.2498C88.2 28.7818 88.284 28.3528 88.452 27.9628C88.62 27.5728 88.854 27.2338 89.154 26.9458C89.454 26.6518 89.805 26.4268 90.207 26.2708C90.615 26.1088 91.059 26.0278 91.539 26.0278C92.025 26.0278 92.472 26.1118 92.88 26.2798C93.294 26.4418 93.645 26.6848 93.933 27.0088L93.348 27.5758C93.108 27.3238 92.838 27.1378 92.538 27.0178C92.238 26.8918 91.917 26.8288 91.575 26.8288C91.221 26.8288 90.891 26.8888 90.585 27.0088C90.285 27.1288 90.024 27.2968 89.802 27.5128C89.58 27.7288 89.406 27.9868 89.28 28.2868C89.16 28.5808 89.1 28.9018 89.1 29.2498C89.1 29.5978 89.16 29.9218 89.28 30.2218C89.406 30.5158 89.58 30.7708 89.802 30.9868C90.024 31.2028 90.285 31.3708 90.585 31.4908C90.891 31.6108 91.221 31.6708 91.575 31.6708C91.917 31.6708 92.238 31.6108 92.538 31.4908C92.838 31.3648 93.108 31.1728 93.348 30.9148L93.933 31.4818C93.645 31.8058 93.294 32.0518 92.88 32.2198C92.472 32.3878 92.022 32.4718 91.53 32.4718Z" fill="black"/>
<path d="M99.9149 26.0998H100.815V32.3998H99.9149V26.0998ZM96.2969 32.3998H95.3969V26.0998H96.2969V32.3998ZM99.9959 29.5918H96.2069V28.8088H99.9959V29.5918Z" fill="black"/>
<path d="M101.927 32.3998L104.78 26.0998H105.671L108.533 32.3998H107.588L105.041 26.6038H105.401L102.854 32.3998H101.927ZM103.142 30.8248L103.385 30.1048H106.931L107.192 30.8248H103.142Z" fill="black"/>
<path d="M109.652 32.3998V26.0998H112.109C112.661 26.0998 113.132 26.1868 113.522 26.3608C113.912 26.5348 114.212 26.7868 114.422 27.1168C114.632 27.4468 114.737 27.8398 114.737 28.2958C114.737 28.7518 114.632 29.1448 114.422 29.4748C114.212 29.7988 113.912 30.0478 113.522 30.2218C113.132 30.3958 112.661 30.4828 112.109 30.4828H110.147L110.552 30.0688V32.3998H109.652ZM113.864 32.3998L112.262 30.1138H113.225L114.845 32.3998H113.864ZM110.552 30.1588L110.147 29.7178H112.082C112.658 29.7178 113.093 29.5948 113.387 29.3488C113.687 29.0968 113.837 28.7458 113.837 28.2958C113.837 27.8458 113.687 27.4978 113.387 27.2518C113.093 27.0058 112.658 26.8828 112.082 26.8828H110.147L110.552 26.4328V30.1588Z" fill="black"/>
<path d="M116.371 32.3998V26.0998H117.271V32.3998H116.371Z" fill="black"/>
<path d="M120.589 32.3998V26.8828H118.429V26.0998H123.64V26.8828H121.48V32.3998H120.589Z" fill="black"/>
<path d="M126.25 32.3998V29.9878L126.457 30.5458L123.748 26.0998H124.711L126.988 29.8528H126.466L128.752 26.0998H129.643L126.943 30.5458L127.141 29.9878V32.3998H126.25Z" fill="black"/>
<path d="M134.144 29.0788H137.393V29.8528H134.144V29.0788ZM134.234 32.3998H133.334V26.0998H137.78V26.8828H134.234V32.3998Z" fill="black"/>
<path d="M142 32.4718C141.52 32.4718 141.073 32.3908 140.659 32.2288C140.251 32.0668 139.897 31.8418 139.597 31.5538C139.297 31.2598 139.063 30.9178 138.895 30.5278C138.727 30.1378 138.643 29.7118 138.643 29.2498C138.643 28.7878 138.727 28.3618 138.895 27.9718C139.063 27.5818 139.297 27.2428 139.597 26.9548C139.897 26.6608 140.251 26.4328 140.659 26.2708C141.067 26.1088 141.514 26.0278 142 26.0278C142.48 26.0278 142.921 26.1088 143.323 26.2708C143.731 26.4268 144.085 26.6518 144.385 26.9458C144.691 27.2338 144.925 27.5728 145.087 27.9628C145.255 28.3528 145.339 28.7818 145.339 29.2498C145.339 29.7178 145.255 30.1468 145.087 30.5368C144.925 30.9268 144.691 31.2688 144.385 31.5628C144.085 31.8508 143.731 32.0758 143.323 32.2378C142.921 32.3938 142.48 32.4718 142 32.4718ZM142 31.6708C142.348 31.6708 142.669 31.6108 142.963 31.4908C143.263 31.3708 143.521 31.2028 143.737 30.9868C143.959 30.7648 144.13 30.5068 144.25 30.2128C144.376 29.9188 144.439 29.5978 144.439 29.2498C144.439 28.9018 144.376 28.5808 144.25 28.2868C144.13 27.9928 143.959 27.7378 143.737 27.5218C143.521 27.2998 143.263 27.1288 142.963 27.0088C142.669 26.8888 142.348 26.8288 142 26.8288C141.646 26.8288 141.319 26.8888 141.019 27.0088C140.725 27.1288 140.467 27.2998 140.245 27.5218C140.023 27.7378 139.849 27.9928 139.723 28.2868C139.603 28.5808 139.543 28.9018 139.543 29.2498C139.543 29.5978 139.603 29.9188 139.723 30.2128C139.849 30.5068 140.023 30.7648 140.245 30.9868C140.467 31.2028 140.725 31.3708 141.019 31.4908C141.319 31.6108 141.646 31.6708 142 31.6708Z" fill="black"/>
<path d="M149.505 32.4718C148.677 32.4718 148.026 32.2348 147.552 31.7608C147.078 31.2868 146.841 30.5938 146.841 29.6818V26.0998H147.741V29.6458C147.741 30.3478 147.894 30.8608 148.2 31.1848C148.512 31.5088 148.95 31.6708 149.514 31.6708C150.084 31.6708 150.522 31.5088 150.828 31.1848C151.14 30.8608 151.296 30.3478 151.296 29.6458V26.0998H152.169V29.6818C152.169 30.5938 151.932 31.2868 151.458 31.7608C150.99 32.2348 150.339 32.4718 149.505 32.4718Z" fill="black"/>
<path d="M154.194 32.3998V26.0998H154.932L159.099 31.2748H158.712V26.0998H159.612V32.3998H158.874L154.707 27.2248H155.094V32.3998H154.194Z" fill="black"/>
<path d="M161.678 32.3998V26.0998H164.333C165.005 26.0998 165.596 26.2318 166.106 26.4958C166.622 26.7598 167.021 27.1288 167.303 27.6028C167.591 28.0768 167.735 28.6258 167.735 29.2498C167.735 29.8738 167.591 30.4228 167.303 30.8968C167.021 31.3708 166.622 31.7398 166.106 32.0038C165.596 32.2678 165.005 32.3998 164.333 32.3998H161.678ZM162.578 31.6168H164.279C164.801 31.6168 165.251 31.5178 165.629 31.3198C166.013 31.1218 166.31 30.8458 166.52 30.4918C166.73 30.1318 166.835 29.7178 166.835 29.2498C166.835 28.7758 166.73 28.3618 166.52 28.0078C166.31 27.6538 166.013 27.3778 165.629 27.1798C165.251 26.9818 164.801 26.8828 164.279 26.8828H162.578V31.6168Z" fill="black"/>
<path d="M168.251 32.3998L171.104 26.0998H171.995L174.857 32.3998H173.912L171.365 26.6038H171.725L169.178 32.3998H168.251ZM169.466 30.8248L169.709 30.1048H173.255L173.516 30.8248H169.466Z" fill="black"/>
<path d="M176.912 32.3998V26.8828H174.752V26.0998H179.963V26.8828H177.803V32.3998H176.912Z" fill="black"/>
<path d="M181.123 32.3998V26.0998H182.023V32.3998H181.123Z" fill="black"/>
<path d="M186.933 32.4718C186.453 32.4718 186.006 32.3908 185.592 32.2288C185.184 32.0668 184.83 31.8418 184.53 31.5538C184.23 31.2598 183.996 30.9178 183.828 30.5278C183.66 30.1378 183.576 29.7118 183.576 29.2498C183.576 28.7878 183.66 28.3618 183.828 27.9718C183.996 27.5818 184.23 27.2428 184.53 26.9548C184.83 26.6608 185.184 26.4328 185.592 26.2708C186 26.1088 186.447 26.0278 186.933 26.0278C187.413 26.0278 187.854 26.1088 188.256 26.2708C188.664 26.4268 189.018 26.6518 189.318 26.9458C189.624 27.2338 189.858 27.5728 190.02 27.9628C190.188 28.3528 190.272 28.7818 190.272 29.2498C190.272 29.7178 190.188 30.1468 190.02 30.5368C189.858 30.9268 189.624 31.2688 189.318 31.5628C189.018 31.8508 188.664 32.0758 188.256 32.2378C187.854 32.3938 187.413 32.4718 186.933 32.4718ZM186.933 31.6708C187.281 31.6708 187.602 31.6108 187.896 31.4908C188.196 31.3708 188.454 31.2028 188.67 30.9868C188.892 30.7648 189.063 30.5068 189.183 30.2128C189.309 29.9188 189.372 29.5978 189.372 29.2498C189.372 28.9018 189.309 28.5808 189.183 28.2868C189.063 27.9928 188.892 27.7378 188.67 27.5218C188.454 27.2998 188.196 27.1288 187.896 27.0088C187.602 26.8888 187.281 26.8288 186.933 26.8288C186.579 26.8288 186.252 26.8888 185.952 27.0088C185.658 27.1288 185.4 27.2998 185.178 27.5218C184.956 27.7378 184.782 27.9928 184.656 28.2868C184.536 28.5808 184.476 28.9018 184.476 29.2498C184.476 29.5978 184.536 29.9188 184.656 30.2128C184.782 30.5068 184.956 30.7648 185.178 30.9868C185.4 31.2028 185.658 31.3708 185.952 31.4908C186.252 31.6108 186.579 31.6708 186.933 31.6708Z" fill="black"/>
<path d="M191.828 32.3998V26.0998H192.566L196.733 31.2748H196.346V26.0998H197.246V32.3998H196.508L192.341 27.2248H192.728V32.3998H191.828Z" fill="black"/>
</svg>
