<svg width="202" height="34" viewBox="0 0 202 34" fill="none" xmlns="http://www.w3.org/2000/svg">
<path d="M0 0H8.85343C10.8551 0 12.6172 0.368571 14.1398 1.10571C15.6796 1.82571 16.8686 2.86286 17.7069 4.21714C18.5623 5.57143 18.99 7.16571 18.99 9C18.99 10.8343 18.5623 12.4286 17.7069 13.7829C16.8686 15.1371 15.6796 16.1829 14.1398 16.92C12.6172 17.64 10.8551 18 8.85343 18H0V0ZM8.59681 13.2686C9.89702 13.2686 10.9321 12.9 11.7019 12.1629C12.4889 11.4086 12.8824 10.3543 12.8824 9C12.8824 7.64571 12.4889 6.6 11.7019 5.86286C10.9321 5.10857 9.89702 4.73143 8.59681 4.73143H6.05626V13.2686H8.59681Z" fill="#222222"/>
<path d="M33.7048 14.8629H26.8787L25.6725 18H19.5136L27.3662 0H33.3199L41.1725 18H34.9109L33.7048 14.8629ZM32.0367 10.4914L30.2917 5.96571L28.5467 10.4914H32.0367Z" fill="#222222"/>
<path d="M52.1749 11.4686V18H46.1186V11.3914L39.3438 0H45.7337L49.4034 6.22286L53.0987 0H58.9497L52.1749 11.4686Z" fill="#222222"/>
<path d="M142.356 0H151.209C153.211 0 154.973 0.368571 156.496 1.10572C158.036 1.82571 159.225 2.86286 160.063 4.21714C160.918 5.57143 161.346 7.16572 161.346 9C161.346 10.8343 160.918 12.4286 160.063 13.7829C159.225 15.1371 158.036 16.1829 156.496 16.92C154.973 17.64 153.211 18 151.209 18H142.356V0ZM150.953 13.2686C152.253 13.2686 153.288 12.9 154.058 12.1629C154.845 11.4086 155.238 10.3543 155.238 9C155.238 7.64572 154.845 6.6 154.058 5.86286C153.288 5.10857 152.253 4.73143 150.953 4.73143H148.412V13.2686H150.953Z" fill="#222222"/>
<path d="M176.061 14.8629H169.235L168.028 18H161.87L169.722 0H175.676L183.528 18H177.267L176.061 14.8629ZM174.393 10.4914L172.648 5.96571L170.903 10.4914H174.393Z" fill="#222222"/>
<path d="M194.531 11.4686V18H188.475V11.3914L181.7 0H188.09L191.759 6.22286L195.455 0H201.306L194.531 11.4686Z" fill="#222222"/>
<path d="M96.4553 8.58857C97.516 8.98286 98.3371 9.55714 98.9188 10.3114C99.5005 11.0657 99.7913 11.9743 99.7913 13.0371C99.7913 14.6143 99.1412 15.84 97.841 16.7143C96.5408 17.5714 94.6589 18 92.1953 18H82.0845V0H91.6821C94.0772 0 95.8821 0.428571 97.0968 1.28571C98.3286 2.14286 98.9445 3.28286 98.9445 4.70571C98.9445 5.54571 98.7306 6.3 98.3029 6.96857C97.8923 7.63714 97.2764 8.17714 96.4553 8.58857ZM88.0381 4.24286V6.91714H90.8609C92.1782 6.91714 92.8369 6.47143 92.8369 5.58C92.8369 4.68857 92.1782 4.24286 90.8609 4.24286H88.0381ZM91.6821 13.7571C93.0165 13.7571 93.6837 13.2857 93.6837 12.3429C93.6837 11.4 93.0165 10.9286 91.6821 10.9286H88.0381V13.7571H91.6821Z" fill="#222222"/>
<path d="M112.745 11.4686V18H106.689V11.3914L99.9142 0H106.304L109.974 6.22286L113.669 0H119.52L112.745 11.4686Z" fill="#222222"/>
<path d="M75.8887 8.99986C75.8887 12.5503 73.0163 15.4284 69.4731 15.4284C65.9299 15.4284 63.0576 12.5503 63.0576 8.99986C63.0576 5.44946 65.9299 2.57129 69.4731 2.57129C73.0163 2.57129 75.8887 5.44946 75.8887 8.99986Z" fill="#4289F4"/>
<path d="M136.161 8.99986C136.161 12.5503 133.288 15.4284 129.745 15.4284C126.202 15.4284 123.33 12.5503 123.33 8.99986C123.33 5.44946 126.202 2.57129 129.745 2.57129C133.288 2.57129 136.161 5.44946 136.161 8.99986Z" fill="#FFD233"/>
<path d="M36.7124 32.6123V27.2824H40.7326V27.9296H37.4662V29.4524H39.1261C39.7606 29.4524 40.2428 29.5844 40.5727 29.8484C40.9027 30.1123 41.0676 30.4956 41.0676 30.9981C41.0676 31.5158 40.8874 31.9143 40.527 32.1935C40.1717 32.4727 39.6616 32.6123 38.9966 32.6123H36.7124ZM37.4662 32.0108H38.9662C39.4078 32.0108 39.7403 31.927 39.9636 31.7595C40.192 31.592 40.3062 31.3433 40.3062 31.0133C40.3062 30.3737 39.8595 30.0539 38.9662 30.0539H37.4662V32.0108Z" fill="black"/>
<path d="M42.0488 32.6732C41.9727 32.6732 41.8966 32.6681 41.8204 32.6579C41.7443 32.6478 41.6605 32.6326 41.5692 32.6123L41.6225 31.9346C41.7037 31.9549 41.7849 31.9651 41.8661 31.9651C42.0894 31.9651 42.2671 31.8762 42.3991 31.6986C42.5311 31.5209 42.6275 31.2519 42.6884 30.8915C42.7544 30.5311 42.7976 30.0768 42.8179 29.5286L42.9016 27.2824H46.6553V32.6123H45.9092V27.7469L46.0919 27.9448H43.3889L43.5564 27.7393L43.4955 29.5057C43.4803 30.0336 43.4448 30.4956 43.3889 30.8915C43.3331 31.2874 43.2493 31.6174 43.1377 31.8813C43.026 32.1453 42.8813 32.3432 42.7036 32.4752C42.5311 32.6072 42.3128 32.6732 42.0488 32.6732Z" fill="black"/>
<path d="M47.7292 32.6123L50.1429 27.2824H50.8967L53.3179 32.6123H52.5185L50.3637 27.7088H50.6682L48.5135 32.6123H47.7292ZM48.7571 31.2798L48.9627 30.6707H51.9626L52.1834 31.2798H48.7571Z" fill="black"/>
<path d="M54.3901 32.6123V27.2824H57.8849L57.8773 27.9448H54.9535L55.1363 27.7545L55.1439 32.6123H54.3901Z" fill="black"/>
<path d="M60.666 32.6732C60.2599 32.6732 59.8818 32.6046 59.5315 32.4676C59.1864 32.3305 58.8869 32.1402 58.6331 31.8965C58.3793 31.6478 58.1813 31.3585 58.0392 31.0285C57.8971 30.6986 57.826 30.3382 57.826 29.9473C57.826 29.5565 57.8971 29.1961 58.0392 28.8661C58.1813 28.5362 58.3793 28.2494 58.6331 28.0058C58.8869 27.757 59.1864 27.5641 59.5315 27.4271C59.8767 27.29 60.2549 27.2215 60.666 27.2215C61.0721 27.2215 61.4452 27.29 61.7853 27.4271C62.1305 27.5591 62.4299 27.7494 62.6838 27.9981C62.9426 28.2418 63.1406 28.5286 63.2776 28.8585C63.4198 29.1885 63.4908 29.5514 63.4908 29.9473C63.4908 30.3433 63.4198 30.7062 63.2776 31.0362C63.1406 31.3661 62.9426 31.6554 62.6838 31.9042C62.4299 32.1478 62.1305 32.3382 61.7853 32.4752C61.4452 32.6072 61.0721 32.6732 60.666 32.6732ZM60.666 31.9955C60.9604 31.9955 61.232 31.9448 61.4807 31.8432C61.7345 31.7417 61.9528 31.5996 62.1355 31.4169C62.3234 31.229 62.468 31.0108 62.5695 30.762C62.6761 30.5133 62.7294 30.2418 62.7294 29.9473C62.7294 29.6529 62.6761 29.3814 62.5695 29.1326C62.468 28.8839 62.3234 28.6682 62.1355 28.4854C61.9528 28.2976 61.7345 28.153 61.4807 28.0514C61.232 27.9499 60.9604 27.8992 60.666 27.8992C60.3665 27.8992 60.0899 27.9499 59.8361 28.0514C59.5874 28.153 59.3691 28.2976 59.1813 28.4854C58.9935 28.6682 58.8463 28.8839 58.7397 29.1326C58.6382 29.3814 58.5874 29.6529 58.5874 29.9473C58.5874 30.2418 58.6382 30.5133 58.7397 30.762C58.8463 31.0108 58.9935 31.229 59.1813 31.4169C59.3691 31.5996 59.5874 31.7417 59.8361 31.8432C60.0899 31.9448 60.3665 31.9955 60.666 31.9955Z" fill="black"/>
<path d="M68.2658 32.2544V27.9448H65.9283L65.8902 29.0641C65.875 29.4397 65.8496 29.8001 65.8141 30.1453C65.7836 30.4905 65.7379 30.8027 65.677 31.0818C65.6161 31.3559 65.5298 31.5818 65.4181 31.7595C65.3116 31.9372 65.1745 32.0463 65.007 32.0869L64.1847 31.9498C64.3826 31.9651 64.5451 31.8991 64.672 31.7519C64.8039 31.5996 64.9055 31.3889 64.9765 31.1199C65.0527 30.8458 65.1085 30.5285 65.144 30.1682C65.1796 29.8027 65.205 29.4118 65.2202 28.9956L65.2735 27.2824H69.0196V32.2544H68.2658ZM63.9943 33.7772L64.0019 31.9498H69.8038V33.7772H69.0957V32.6123H64.71L64.7024 33.7772H63.9943Z" fill="black"/>
<path d="M70.997 32.6123V27.2824H71.7508V32.6123H70.997Z" fill="black"/>
<path d="M73.5659 32.6123V27.2824H74.3197V31.394L77.4719 27.2824H78.1724V32.6123H77.4262V28.5083L74.2664 32.6123H73.5659ZM75.8577 26.9093C75.4415 26.9093 75.1192 26.818 74.8907 26.6352C74.6674 26.4525 74.5532 26.1962 74.5481 25.8662H75.0887C75.0938 26.0642 75.1648 26.219 75.3019 26.3307C75.439 26.4373 75.6242 26.4906 75.8577 26.4906C76.0861 26.4906 76.2689 26.4373 76.4059 26.3307C76.5481 26.219 76.6217 26.0642 76.6267 25.8662H77.1597C77.1547 26.1962 77.0379 26.4525 76.8095 26.6352C76.5861 26.818 76.2689 26.9093 75.8577 26.9093Z" fill="black"/>
<path d="M83.8086 27.2824H84.57V32.6123H83.8086V27.2824ZM80.7478 32.6123H79.9864V27.2824H80.7478V32.6123ZM83.8772 30.2367H80.6717V29.5743H83.8772V30.2367Z" fill="black"/>
<path d="M86.3846 32.6123V27.2824H87.1384V31.394L90.2906 27.2824H90.9911V32.6123H90.2449V28.5083L87.0851 32.6123H86.3846Z" fill="black"/>
<path d="M92.8051 32.6123V27.2824H93.5589V31.394L96.7111 27.2824H97.4116V32.6123H96.6654V28.5083L93.5056 32.6123H92.8051ZM95.0969 26.9093C94.6807 26.9093 94.3583 26.818 94.1299 26.6352C93.9066 26.4525 93.7923 26.1962 93.7873 25.8662H94.3279C94.3329 26.0642 94.404 26.219 94.5411 26.3307C94.6781 26.4373 94.8634 26.4906 95.0969 26.4906C95.3253 26.4906 95.508 26.4373 95.6451 26.3307C95.7872 26.219 95.8608 26.0642 95.8659 25.8662H96.3989C96.3938 26.1962 96.2771 26.4525 96.0486 26.6352C95.8253 26.818 95.508 26.9093 95.0969 26.9093Z" fill="black"/>
<path d="M104.027 32.2544C103.377 32.2544 102.821 32.1656 102.359 31.9879C101.897 31.8052 101.544 31.5412 101.301 31.196C101.057 30.8509 100.935 30.4321 100.935 29.9397C100.935 29.4474 101.057 29.0286 101.301 28.6834C101.544 28.3382 101.897 28.0743 102.359 27.8915C102.821 27.7088 103.377 27.6174 104.027 27.6174C104.037 27.6174 104.055 27.6174 104.08 27.6174C104.11 27.6174 104.138 27.6174 104.164 27.6174C104.194 27.6174 104.212 27.6174 104.217 27.6174C104.867 27.6174 105.42 27.7088 105.877 27.8915C106.339 28.0743 106.692 28.3382 106.935 28.6834C107.179 29.0286 107.301 29.4474 107.301 29.9397C107.301 30.427 107.179 30.8458 106.935 31.196C106.697 31.5412 106.349 31.8052 105.892 31.9879C105.44 32.1656 104.892 32.2544 104.247 32.2544C104.237 32.2544 104.214 32.2544 104.179 32.2544C104.148 32.2544 104.118 32.2544 104.088 32.2544C104.057 32.2544 104.037 32.2544 104.027 32.2544ZM104.11 31.6605C104.121 31.6605 104.133 31.6605 104.148 31.6605C104.164 31.6605 104.171 31.6605 104.171 31.6605C104.689 31.6554 105.126 31.5894 105.481 31.4625C105.836 31.3306 106.105 31.1377 106.288 30.8839C106.476 30.625 106.57 30.3077 106.57 29.9321C106.57 29.5616 106.476 29.2494 106.288 28.9956C106.1 28.7418 105.829 28.5489 105.473 28.4169C105.123 28.2849 104.694 28.219 104.187 28.219C104.181 28.219 104.169 28.219 104.148 28.219C104.133 28.219 104.121 28.219 104.11 28.219C103.588 28.219 103.143 28.2849 102.778 28.4169C102.418 28.5438 102.143 28.7342 101.956 28.988C101.768 29.2418 101.674 29.559 101.674 29.9397C101.674 30.3204 101.77 30.6377 101.963 30.8915C102.156 31.1453 102.433 31.3382 102.793 31.4702C103.159 31.5971 103.598 31.6605 104.11 31.6605ZM103.768 32.8102V27.0845H104.476V32.8102H103.768Z" fill="black"/>
<path d="M111.022 32.6732C110.616 32.6732 110.238 32.6046 109.888 32.4676C109.543 32.3305 109.243 32.1402 108.989 31.8965C108.736 31.6478 108.538 31.3585 108.395 31.0285C108.253 30.6986 108.182 30.3382 108.182 29.9473C108.182 29.5565 108.253 29.1961 108.395 28.8661C108.538 28.5362 108.736 28.2494 108.989 28.0058C109.243 27.757 109.543 27.5641 109.888 27.4271C110.233 27.29 110.611 27.2215 111.022 27.2215C111.428 27.2215 111.801 27.29 112.142 27.4271C112.487 27.5591 112.786 27.7494 113.04 27.9981C113.299 28.2418 113.497 28.5286 113.634 28.8585C113.776 29.1885 113.847 29.5514 113.847 29.9473C113.847 30.3433 113.776 30.7062 113.634 31.0362C113.497 31.3661 113.299 31.6554 113.04 31.9042C112.786 32.1478 112.487 32.3382 112.142 32.4752C111.801 32.6072 111.428 32.6732 111.022 32.6732ZM111.022 31.9955C111.317 31.9955 111.588 31.9448 111.837 31.8432C112.091 31.7417 112.309 31.5996 112.492 31.4169C112.68 31.229 112.824 31.0108 112.926 30.762C113.032 30.5133 113.086 30.2418 113.086 29.9473C113.086 29.6529 113.032 29.3814 112.926 29.1326C112.824 28.8839 112.68 28.6682 112.492 28.4854C112.309 28.2976 112.091 28.153 111.837 28.0514C111.588 27.9499 111.317 27.8992 111.022 27.8992C110.723 27.8992 110.446 27.9499 110.192 28.0514C109.944 28.153 109.725 28.2976 109.538 28.4854C109.35 28.6682 109.203 28.8839 109.096 29.1326C108.994 29.3814 108.944 29.6529 108.944 29.9473C108.944 30.2418 108.994 30.5133 109.096 30.762C109.203 31.0108 109.35 31.229 109.538 31.4169C109.725 31.5996 109.944 31.7417 110.192 31.8432C110.446 31.9448 110.723 31.9955 111.022 31.9955Z" fill="black"/>
<path d="M119.052 27.2824H119.814V32.6123H119.052V27.2824ZM115.992 32.6123H115.23V27.2824H115.992V32.6123ZM119.121 30.2367H115.915V29.5743H119.121V30.2367Z" fill="black"/>
<path d="M125.102 32.2544V27.9448H122.765L122.726 29.0641C122.711 29.4397 122.686 29.8001 122.65 30.1453C122.62 30.4905 122.574 30.8027 122.513 31.0818C122.452 31.3559 122.366 31.5818 122.254 31.7595C122.148 31.9372 122.011 32.0463 121.843 32.0869L121.021 31.9498C121.219 31.9651 121.381 31.8991 121.508 31.7519C121.64 31.5996 121.742 31.3889 121.813 31.1199C121.889 30.8458 121.945 30.5285 121.98 30.1682C122.016 29.8027 122.041 29.4118 122.056 28.9956L122.11 27.2824H125.856V32.2544H125.102ZM120.831 33.7772L120.838 31.9498H126.64V33.7772H125.932V32.6123H121.546L121.539 33.7772H120.831Z" fill="black"/>
<path d="M130.647 32.0488L129.551 30.5945L130.647 29.1326H131.317L130.244 30.5945L131.317 32.0488H130.647ZM132.109 32.0488L131.013 30.5945L132.109 29.1326H132.779L131.705 30.5945L132.779 32.0488H132.109Z" fill="black"/>
<path d="M137.56 32.2544V27.9448H135.222L135.184 29.0641C135.169 29.4397 135.144 29.8001 135.108 30.1453C135.078 30.4905 135.032 30.8027 134.971 31.0818C134.91 31.3559 134.824 31.5818 134.712 31.7595C134.606 31.9372 134.469 32.0463 134.301 32.0869L133.479 31.9498C133.677 31.9651 133.839 31.8991 133.966 31.7519C134.098 31.5996 134.2 31.3889 134.271 31.1199C134.347 30.8458 134.403 30.5285 134.438 30.1682C134.474 29.8027 134.499 29.4118 134.514 28.9956L134.568 27.2824H138.314V32.2544H137.56ZM133.288 33.7772L133.296 31.9498H139.098V33.7772H138.39V32.6123H134.004L133.997 33.7772H133.288Z" fill="black"/>
<path d="M140.984 29.5819H143.725V30.2291H140.984V29.5819ZM141.053 31.9498H144.159V32.6123H140.291V27.2824H144.053V27.9448H141.053V31.9498Z" fill="black"/>
<path d="M149.329 27.2824H150.091V32.6123H149.329V27.2824ZM146.268 32.6123H145.507V27.2824H146.268V32.6123ZM149.398 30.2367H146.192V29.5743H149.398V30.2367Z" fill="black"/>
<path d="M154.243 29.1403C154.872 29.1403 155.357 29.2824 155.697 29.5666C156.037 29.8458 156.207 30.2646 156.207 30.823C156.207 31.4118 156.022 31.8585 155.651 32.163C155.286 32.4625 154.771 32.6123 154.106 32.6123H151.905V27.2824H152.659V29.1403H154.243ZM154.075 32.0108C154.517 32.0108 154.854 31.9118 155.088 31.7138C155.327 31.5158 155.446 31.224 155.446 30.8382C155.446 30.4626 155.329 30.1859 155.096 30.0083C154.862 29.8306 154.522 29.7418 154.075 29.7418H152.659V32.0108H154.075Z" fill="black"/>
<path d="M159.096 32.0336L159.363 31.4702C159.596 31.6529 159.853 31.7899 160.132 31.8813C160.416 31.9727 160.698 32.0209 160.977 32.026C161.256 32.026 161.513 31.9879 161.746 31.9118C161.985 31.8356 162.175 31.7214 162.317 31.5691C162.459 31.4169 162.53 31.229 162.53 31.0057C162.53 30.7316 162.419 30.5235 162.195 30.3813C161.977 30.2392 161.672 30.1682 161.282 30.1682H160.094V29.5514H161.228C161.568 29.5514 161.832 29.4829 162.02 29.3458C162.213 29.2037 162.309 29.0083 162.309 28.7596C162.309 28.5717 162.251 28.4144 162.134 28.2875C162.023 28.1555 161.868 28.0565 161.67 27.9905C161.477 27.9245 161.256 27.8915 161.007 27.8915C160.764 27.8865 160.513 27.9195 160.254 27.9905C159.995 28.0565 159.746 28.1631 159.507 28.3103L159.264 27.686C159.589 27.5032 159.926 27.3763 160.276 27.3053C160.632 27.2291 160.974 27.2063 161.304 27.2367C161.634 27.2621 161.931 27.3383 162.195 27.4652C162.464 27.587 162.677 27.7494 162.835 27.9525C162.997 28.1504 163.078 28.389 163.078 28.6682C163.078 28.922 163.012 29.1479 162.881 29.3458C162.749 29.5387 162.566 29.6885 162.332 29.7951C162.099 29.8966 161.827 29.9473 161.518 29.9473L161.548 29.7418C161.903 29.7418 162.21 29.8001 162.469 29.9169C162.733 30.0286 162.936 30.1885 163.078 30.3966C163.226 30.6047 163.299 30.8458 163.299 31.1199C163.299 31.3788 163.233 31.6097 163.101 31.8128C162.969 32.0108 162.789 32.1783 162.561 32.3153C162.337 32.4473 162.081 32.5437 161.792 32.6046C161.507 32.6656 161.208 32.6859 160.893 32.6656C160.579 32.6453 160.266 32.5843 159.957 32.4828C159.652 32.3813 159.365 32.2316 159.096 32.0336Z" fill="black"/>
<path d="M163.982 32.6123L166.395 27.2824H167.149L169.57 32.6123H168.771L166.616 27.7088H166.921L164.766 32.6123H163.982ZM165.009 31.2798L165.215 30.6707H168.215L168.436 31.2798H165.009Z" fill="black"/>
<path d="M176.38 32.2544V27.9448H174.042L174.004 29.0641C173.989 29.4397 173.964 29.8001 173.928 30.1453C173.898 30.4905 173.852 30.8027 173.791 31.0818C173.73 31.3559 173.644 31.5818 173.532 31.7595C173.426 31.9372 173.289 32.0463 173.121 32.0869L172.299 31.9498C172.497 31.9651 172.659 31.8991 172.786 31.7519C172.918 31.5996 173.02 31.3889 173.091 31.1199C173.167 30.8458 173.223 30.5285 173.258 30.1682C173.294 29.8027 173.319 29.4118 173.334 28.9956L173.388 27.2824H177.134V32.2544H176.38ZM172.108 33.7772L172.116 31.9498H177.918V33.7772H177.21V32.6123H172.824L172.817 33.7772H172.108Z" fill="black"/>
<path d="M182.933 27.2824H183.695V32.6123H182.933V27.2824ZM179.873 32.6123H179.111V27.2824H179.873V32.6123ZM183.002 30.2367H179.796V29.5743H183.002V30.2367Z" fill="black"/>
<path d="M186.202 29.5819H188.943V30.2291H186.202V29.5819ZM186.271 31.9498H189.377V32.6123H185.509V27.2824H189.271V27.9448H186.271V31.9498Z" fill="black"/>
<path d="M190.725 32.6123V27.2824H191.35L193.74 31.3103H193.405L195.766 27.2824H196.39L196.398 32.6123H195.667L195.659 28.4321H195.834L193.733 31.9651H193.383L191.266 28.4321H191.456V32.6123H190.725Z" fill="black"/>
<path d="M198.308 32.0488H197.638L198.712 30.5945L197.638 29.1326H198.308L199.405 30.5945L198.308 32.0488ZM199.77 32.0488H199.1L200.174 30.5945L199.1 29.1326H199.77L200.866 30.5945L199.77 32.0488Z" fill="black"/>
</svg>
