<svg width="220" height="20" viewBox="0 0 220 20" fill="none" xmlns="http://www.w3.org/2000/svg">
<path d="M0 0H9.64627C11.8272 0 13.7471 0.409524 15.4061 1.22857C17.0837 2.02857 18.3792 3.18095 19.2925 4.68572C20.2246 6.19048 20.6906 7.96191 20.6906 10C20.6906 12.0381 20.2246 13.8095 19.2925 15.3143C18.3792 16.819 17.0837 17.981 15.4061 18.8C13.7471 19.6 11.8272 20 9.64627 20H0V0ZM9.36667 14.7429C10.7833 14.7429 11.9111 14.3333 12.7499 13.5143C13.6073 12.6762 14.036 11.5048 14.036 10C14.036 8.49524 13.6073 7.33333 12.7499 6.51429C11.9111 5.67619 10.7833 5.25714 9.36667 5.25714H6.59861V14.7429H9.36667Z" fill="#222222"/>
<path d="M36.7231 16.5143H29.2857L27.9716 20H21.2611L29.8169 0H36.3037L44.8595 20H38.0373L36.7231 16.5143ZM34.9057 11.6571L33.0044 6.62857L31.1031 11.6571H34.9057Z" fill="#222222"/>
<path d="M56.8473 12.7429V20H50.2487V12.6571L42.8672 0H49.8293L53.8276 6.91429L57.8538 0H64.2288L56.8473 12.7429Z" fill="#222222"/>
<path d="M155.104 0H164.751C166.932 0 168.852 0.409524 170.511 1.22857C172.188 2.02857 173.484 3.18095 174.397 4.68572C175.329 6.19048 175.795 7.96191 175.795 10C175.795 12.0381 175.329 13.8095 174.397 15.3143C173.484 16.819 172.188 17.981 170.511 18.8C168.852 19.6 166.932 20 164.751 20H155.104V0ZM164.471 14.7429C165.888 14.7429 167.016 14.3333 167.854 13.5143C168.712 12.6762 169.141 11.5048 169.141 10C169.141 8.49524 168.712 7.33333 167.854 6.51429C167.016 5.67619 165.888 5.25714 164.471 5.25714H161.703V14.7429H164.471Z" fill="#222222"/>
<path d="M191.828 16.5143H184.39L183.076 20H176.366L184.921 0H191.408L199.964 20H193.142L191.828 16.5143ZM190.01 11.6571L188.109 6.62857L186.208 11.6571H190.01Z" fill="#222222"/>
<path d="M211.952 12.7429V20H205.353V12.6571L197.972 0H204.934L208.932 6.91429L212.958 0H219.333L211.952 12.7429Z" fill="#222222"/>
<path d="M105.093 9.54286C106.249 9.98095 107.144 10.619 107.777 11.4571C108.411 12.2952 108.728 13.3048 108.728 14.4857C108.728 16.2381 108.02 17.6 106.603 18.5714C105.186 19.5238 103.136 20 100.452 20H89.4355V0H99.8927C102.502 0 104.469 0.47619 105.792 1.42857C107.134 2.38095 107.805 3.64762 107.805 5.22857C107.805 6.16191 107.572 7 107.106 7.74286C106.659 8.48571 105.988 9.08571 105.093 9.54286ZM95.9223 4.71429V7.68571H98.9979C100.433 7.68571 101.151 7.19048 101.151 6.2C101.151 5.20952 100.433 4.71429 98.9979 4.71429H95.9223ZM99.8927 15.2857C101.347 15.2857 102.074 14.7619 102.074 13.7143C102.074 12.6667 101.347 12.1429 99.8927 12.1429H95.9223V15.2857H99.8927Z" fill="#222222"/>
<path d="M122.842 12.7429V20H116.243V12.6571L108.862 0H115.824L119.822 6.91429L123.849 0H130.224L122.842 12.7429Z" fill="#222222"/>
<path d="M82.6847 10C82.6847 13.9449 79.5552 17.1429 75.6946 17.1429C71.8341 17.1429 68.7046 13.9449 68.7046 10C68.7046 6.05514 71.8341 2.85718 75.6946 2.85718C79.5552 2.85718 82.6847 6.05514 82.6847 10Z" fill="#4289F4"/>
<path d="M148.354 10C148.354 13.9449 145.225 17.1429 141.364 17.1429C137.504 17.1429 134.374 13.9449 134.374 10C134.374 6.05514 137.504 2.85718 141.364 2.85718C145.225 2.85718 148.354 6.05514 148.354 10Z" fill="#FFD233"/>
</svg>
