<svg width="52" height="52" viewBox="0 0 52 52" fill="none" xmlns="http://www.w3.org/2000/svg">
<g clip-path="url(#clip0_1008_536)">
<path fill-rule="evenodd" clip-rule="evenodd" d="M50.6695 19.7175C50.3631 18.4917 49.9545 17.3681 49.5459 16.2444C49.3416 15.8358 49.2394 15.5293 49.0351 15.2229C48.5243 14.0992 47.4007 12.2605 46.6856 11.3411C46.4813 11.0347 46.277 10.7282 45.9706 10.4218L44.949 9.19595C44.4383 8.58304 42.8039 7.05077 42.0888 6.43786C41.4759 5.9271 40.9651 5.5185 40.3522 5.10989C36.8791 2.76041 33.2016 1.33029 29.0134 0.819537C28.1962 0.717386 27.4812 0.615234 26.7661 0.615234H24.5188C24.1102 0.717386 23.4973 0.717386 23.0887 0.717386C20.9435 0.921688 18.7983 1.5346 16.8574 2.24966C15.9381 2.65826 14.9165 3.06687 14.2015 3.47547C13.9972 3.67977 13.895 3.67977 13.6907 3.78193C13.4864 3.88408 13.3843 3.98623 13.18 4.08838C12.9757 4.19053 12.8735 4.29268 12.6692 4.39483C11.5456 5.10989 11.1369 5.41635 9.91113 6.33571C9.29822 6.84647 8.78747 7.35722 8.27671 7.86798L7.15304 8.99165C6.94874 9.19595 6.94874 9.2981 6.74444 9.40025C6.54014 9.70671 6.33583 10.0132 6.02938 10.3196C5.82508 10.6261 5.62077 10.8304 5.41647 11.1368L4.19065 12.9755L3.37344 14.5078C2.96484 15.325 2.45408 16.4487 2.14763 17.2659C1.94332 18.0831 1.63687 18.7982 1.43257 19.6154C1.22826 20.4326 1.02396 21.2498 0.921811 22.1692C0.717508 23.1907 0.615356 24.2122 0.615356 25.2337C0.615356 27.0724 0.615356 27.7875 0.819659 29.7284C1.22826 32.5886 2.14763 35.3467 3.47559 37.7983C5.31432 41.3736 8.07241 44.5403 11.3412 46.7876C12.3628 47.5027 13.9972 48.5242 15.223 49.035C18.1854 50.3629 21.7607 51.3845 25.1317 51.3845C27.9919 51.3845 29.422 51.3845 32.1801 50.6694C34.4275 50.1586 36.164 49.3414 38.2071 48.3199C39.2286 47.8092 41.0673 46.5833 41.8845 45.8683C43.3146 44.6425 44.1318 43.9274 45.3577 42.3951C45.8684 41.7822 46.277 41.2715 46.6856 40.6586L47.605 39.3306C47.7071 39.1263 47.8093 39.0241 47.9114 38.8198C48.8308 37.2876 49.2394 36.2661 49.8523 34.6316C50.1588 33.9166 50.3631 33.0994 50.5674 32.2822C51.691 28.094 51.691 23.9057 50.6695 19.7175ZM45.4598 11.6476C45.8684 12.2605 46.277 12.7712 46.5835 13.3842C46.9921 13.9971 47.2985 14.61 47.605 15.2229C47.7071 15.4272 47.7071 15.5293 47.8093 15.7336L48.2179 16.7551C48.32 16.9595 48.32 17.1638 48.4222 17.2659H39.2286C39.1264 17.0616 39.0243 16.4487 39.0243 16.2444C38.9221 15.9379 38.82 15.6315 38.7178 15.2229L38.1049 13.3842C37.6963 12.2605 37.1855 11.239 36.5726 10.2175L36.4705 10.0132H44.234C44.234 10.2175 45.3577 11.5454 45.4598 11.6476ZM30.0349 2.1475C31.5672 2.35181 33.2016 2.86256 34.6318 3.37332L36.8791 4.39483C37.492 4.70129 38.0028 5.00774 38.5135 5.3142C40.0458 6.23356 40.9651 6.94862 42.191 8.17444C42.4974 8.37874 42.8039 8.58304 43.0082 8.78734H35.6533C35.1425 7.86798 32.8952 5.3142 31.9758 4.49699L31.7715 4.29268L30.8522 3.47547C30.6479 3.37332 30.5457 3.27117 30.3414 3.06687C30.1371 2.96472 30.0349 2.86256 29.8306 2.65826L28.8091 1.9432C29.2177 2.04535 29.6263 2.1475 30.0349 2.1475ZM26.664 1.9432C26.7661 1.9432 27.5833 2.45396 27.7876 2.65826C28.1962 2.86256 29.9328 4.29268 30.3414 4.59914L30.8522 5.00774C31.1586 5.3142 31.4651 5.5185 31.7715 5.82495L34.121 8.78734H26.664V1.9432ZM26.664 10.1153H35.0404C35.0404 10.3196 35.1425 10.3196 35.2447 10.5239L36.3683 12.5669C36.6748 13.1799 36.8791 13.6906 37.1855 14.4057C37.3898 14.9164 38.0028 16.9595 38.0028 17.3681H26.664V10.1153ZM25.4381 1.9432V8.78734H17.9811C18.3897 8.07228 19.1048 7.45938 19.6155 6.84647L22.3736 4.29268C23.0887 3.78193 23.7016 3.16902 24.4166 2.76041C24.5188 2.55611 25.2338 2.04535 25.4381 1.9432ZM25.4381 10.1153V17.2659H14.0993C14.0993 16.8573 14.5079 15.6315 14.6101 15.2229C14.8144 14.5078 15.0187 13.9971 15.3252 13.3842C15.7338 12.3626 16.0402 11.7497 16.551 10.8304C16.6531 10.7282 16.9596 10.2175 16.9596 10.1153H25.4381ZM9.40037 8.48089L9.70683 8.17444C12.1585 5.82495 15.6316 3.98623 18.9004 2.86256C19.8198 2.55611 21.0456 2.35181 22.0671 2.1475C22.4757 2.04535 22.8844 2.04535 23.293 2.04535C22.8844 2.35181 21.965 2.96472 21.3521 3.47547C21.2499 3.57762 21.1478 3.57762 21.0456 3.67978C20.5349 4.08838 18.9004 5.62065 18.594 6.02926L17.9811 6.74432C17.6746 7.05077 16.551 8.48089 16.3467 8.99165H9.09392C9.19607 8.68519 9.29822 8.58304 9.40037 8.48089ZM4.39496 15.2229C4.49711 15.1207 4.49711 15.0186 4.59926 14.8143C4.70141 14.5078 4.80356 14.3035 5.00786 13.9971L5.92723 12.4648C6.13153 12.3626 7.4595 10.4218 7.76595 10.1153C7.8681 10.0132 7.97025 10.0132 8.27671 10.0132H15.5295C15.5295 10.1153 15.4273 10.3196 15.3252 10.4218C14.8144 11.3411 14.3036 12.3626 13.895 13.3842C13.6907 13.9971 13.3843 14.61 13.2821 15.2229C13.18 15.6315 12.7714 16.8573 12.7714 17.2659H3.47559C3.6799 16.7551 4.0885 15.8358 4.39496 15.2229ZM7.76595 41.8844C7.76595 41.7822 6.64229 40.4543 6.54014 40.25L4.39496 36.6747C4.0885 36.0618 3.78205 35.1424 3.47559 34.6316H12.7714C12.7714 35.1424 13.0778 36.1639 13.2821 36.6747C13.9972 39.0241 15.5295 41.8844 15.5295 41.8844H7.76595ZM20.9435 49.6479C18.2875 49.035 15.8359 48.1156 13.4864 46.6855C12.9757 46.379 12.3628 45.9704 11.9542 45.664C11.7499 45.4597 11.4434 45.2554 11.2391 45.0511C11.1369 44.9489 11.0348 44.8468 10.8305 44.7446C10.7283 44.6425 10.7283 44.6425 10.6262 44.6425L10.4219 44.4382L10.1154 44.1317L9.80898 43.8253C9.60468 43.621 9.29822 43.4167 9.19607 43.2124H16.551C16.9596 43.9274 17.7768 44.8468 18.3897 45.5618C18.4918 45.7661 18.6961 45.8683 18.7983 45.9704C19.4112 46.7877 21.4542 48.5242 22.3736 49.2393L23.3951 49.9543C22.5779 49.9543 21.4542 49.75 20.9435 49.6479ZM25.4381 49.9543C24.9274 49.8522 22.8844 48.1156 22.2714 47.707L21.7607 47.2984C21.2499 46.7876 20.4327 46.1747 19.922 45.5618L18.2875 43.621C18.1854 43.4167 18.0832 43.3145 17.8789 43.1102H25.336L25.4381 49.9543ZM25.4381 41.8844H16.9596C16.9596 41.7822 16.8574 41.6801 16.7553 41.4758C16.6531 41.3736 16.551 41.1693 16.551 41.0672L15.6316 39.4328C15.0187 38.3091 14.2015 35.8575 13.9972 34.6316H25.336L25.4381 41.8844ZM34.121 43.2124C33.6102 44.0296 32.3844 45.3575 31.6694 46.0726C31.4651 46.2769 31.3629 46.379 31.2608 46.5833L29.8306 47.8092C29.3199 48.2178 27.0726 49.9543 26.664 50.0565V43.2124H34.121ZM26.664 41.8844V34.7338H38.0028C38.0028 35.2445 37.3898 37.0833 37.1855 37.6962C37.0834 38.0026 36.9812 38.3091 36.7769 38.6155C36.4705 39.3306 35.7554 40.7607 35.2447 41.5779C35.1425 41.6801 35.0404 41.7822 35.0404 41.9865H26.664V41.8844ZM41.578 44.4382L40.863 45.0511C40.6587 45.2554 40.3522 45.4597 40.1479 45.664C37.0834 47.8092 33.7124 49.3414 30.0349 49.9543C29.6263 50.0565 29.2177 50.0565 28.8091 50.0565L31.2608 48.2178C31.7715 47.8092 33.6102 45.9704 34.2232 45.1532L35.3468 43.7231L35.5511 43.5188C35.6533 43.4167 35.6533 43.4167 35.7554 43.2124H43.1103C42.8039 43.4167 41.9867 44.1317 41.578 44.4382ZM48.32 35.2445L47.9114 36.2661C47.4007 37.3897 46.277 39.3306 45.4598 40.3521L44.234 41.9865H36.4705C37.6963 39.7392 38.0028 39.3306 38.7178 36.7768L39.2286 34.7338H48.4222C48.5243 34.8359 48.4222 35.0402 48.32 35.2445ZM49.4437 31.7714C49.3416 32.0779 49.3416 32.3843 49.2394 32.6908C49.1372 32.8951 49.0351 33.4058 49.0351 33.508H3.06699L2.55623 31.7714C2.45408 31.1585 2.24978 30.5456 2.14763 29.9327C2.04548 29.3198 1.94332 28.7069 1.94332 27.9918C1.94332 27.6853 1.84117 27.2767 1.84117 26.9703V25.9488C1.84117 23.8036 2.14763 21.352 2.76053 19.3089C2.86269 19.0025 2.96484 18.696 2.96484 18.4917H48.9329C49.0351 18.696 49.1373 19.0025 49.1373 19.3089C49.5459 20.6369 49.8523 22.4756 49.9545 23.9057V25.9488C50.1588 27.8896 49.9545 29.9327 49.4437 31.7714Z" fill="#7A6E67"/>
<path fill-rule="evenodd" clip-rule="evenodd" d="M14.2015 31.2607C15.4273 31.2607 15.1208 31.465 15.6316 30.5456L16.5509 28.809C16.6531 28.6047 16.6531 28.5026 16.7552 28.4004C17.3681 27.3789 18.0832 25.7445 18.6961 24.723L18.7983 24.6208C18.7983 24.9273 18.9004 25.3359 18.9004 25.5402C18.9004 25.9488 18.9004 26.1531 19.0026 26.4595L19.4112 30.7499C19.4112 31.2607 19.2069 31.1585 20.637 31.1585C20.7391 30.9542 22.3736 27.5832 22.68 27.1746C22.7822 26.9703 22.8843 26.766 22.9865 26.4595L24.723 23.0886L25.0295 22.4756C25.2338 22.1692 25.7446 21.1477 25.9489 20.9434C26.1532 20.7391 26.1532 20.9434 26.1532 20.6369H24.1101C24.1101 21.352 24.5187 20.9434 23.5994 22.9864C23.4972 23.2929 23.3951 23.4972 23.1908 23.8036L21.5564 26.9703C21.4542 27.1746 21.2499 27.6854 21.1478 27.6854C21.1478 26.8682 20.7391 23.5993 20.7391 22.5778C20.7391 21.9649 20.637 21.4541 20.637 20.8412H19.7176L16.6531 26.4595C16.5509 26.6639 16.0402 27.6854 15.938 27.6854C15.938 26.3574 15.4273 23.4972 15.4273 21.9649C15.4273 21.7606 15.4273 21.4541 15.5294 21.2498C15.6316 20.9434 15.8359 20.9434 15.8359 20.6369H12.7713C12.7713 21.0455 12.9756 20.8412 13.1799 21.7606L13.4864 24.4165C13.5885 25.5402 14.2015 30.7499 14.2015 31.2607ZM7.25517 22.9864C7.25517 25.0294 11.2391 25.2337 11.2391 27.9918C11.2391 28.7069 11.1369 29.1155 10.9326 29.5241C10.7283 29.9327 10.524 30.2391 10.2176 30.5456C9.9111 30.8521 9.5025 31.0564 9.09389 31.1585C7.97022 31.5671 6.54011 31.465 5.31429 31.1585C5.10999 31.0564 4.80353 30.9542 4.59923 30.9542C3.67987 30.5456 4.08847 30.5456 4.39493 28.9112C4.49708 28.7069 4.39493 28.6047 4.59923 28.5026C4.59923 29.1155 4.90568 29.7284 5.21214 30.0348C5.72289 30.6478 6.43795 30.6478 7.25517 30.6478C8.17453 30.6478 8.88959 30.0348 9.09389 29.3198C9.40034 27.7875 8.07238 27.1746 7.25517 26.4595C6.3358 25.7445 5.31429 25.0294 5.31429 23.5993C5.31429 22.8843 5.62074 22.067 6.02935 21.7606C6.43795 21.352 6.94871 20.9434 7.56162 20.7391C8.07238 20.5348 8.58313 20.5348 9.19604 20.4326C9.7068 20.4326 11.2391 20.6369 11.7498 20.9434C11.7498 21.2498 11.3412 22.5778 11.3412 22.7821H11.1369C11.1369 22.3735 10.8305 21.8627 10.524 21.5563C10.3197 21.4541 10.2176 21.352 9.9111 21.2498C8.68528 20.9434 7.25517 21.4541 7.25517 22.9864ZM33.7124 21.2498C33.7124 21.8627 32.5887 25.6423 32.3844 26.3574C32.0779 27.4811 31.6693 29.0133 31.2607 30.137C31.1586 30.5456 30.9543 30.9542 30.5457 31.0564V31.2607H33.7124C33.7124 30.6478 33.2016 31.1585 34.121 28.4004L34.7339 26.2552H36.4705C36.9812 26.3574 37.3898 26.4595 37.492 26.9703C37.7984 26.9703 37.6963 26.766 37.9006 26.0509C38.0027 25.7445 38.1049 25.3359 38.207 25.0294C37.9006 25.0294 38.0027 25.2337 37.5941 25.3359C37.1855 25.438 35.4489 25.438 34.9382 25.438L35.8575 22.1692C36.0618 21.2498 36.2662 21.4541 37.9006 21.4541C38.3092 21.4541 38.7178 21.6584 38.9221 21.8627C39.535 22.4756 39.2285 22.5778 39.6371 22.5778C39.6371 22.3735 39.8414 21.8627 39.9436 21.5563C40.0457 21.352 40.0458 21.2498 40.1479 21.0455C40.2501 20.8412 40.3522 20.6369 40.1479 20.6369H33.8145C33.5081 20.9434 33.7124 21.0455 33.7124 21.2498ZM40.0457 22.5778C40.4544 22.5778 40.2501 22.1692 41.1694 21.6584C41.7823 21.352 42.2931 21.4541 43.1103 21.4541L40.9651 28.9112C40.7608 29.5241 40.4544 30.9542 39.9436 31.0564V31.2607H43.0081C43.0081 30.6478 42.5995 31.2607 43.1103 29.4219C43.2124 29.0133 43.3146 28.7069 43.4167 28.2983L44.0297 26.0509C44.4383 24.723 44.8469 23.1907 45.2555 21.7606C45.3576 21.4541 45.2555 21.5563 46.277 21.5563C46.992 21.5563 47.605 22.067 47.8093 22.6799C48.1157 22.6799 48.0136 22.3735 48.2179 21.8627C48.32 21.6584 48.5243 21.0455 48.5243 20.8412H40.863C40.6587 20.8412 40.5565 21.352 40.4544 21.7606C40.2501 21.8627 40.0457 22.2713 40.0457 22.5778ZM27.8897 21.1477C27.8897 21.7606 27.8897 21.5563 27.7876 22.1692L27.2768 24.0079C27.0725 24.8251 25.5403 30.3413 25.1317 30.7499C24.9274 31.0564 24.8252 30.9542 24.723 31.1585H27.8897C27.8897 30.5456 27.4811 31.0564 27.9919 29.2176L28.2983 27.9918C28.5026 27.1746 28.8091 26.3574 29.0134 25.5402C29.3199 24.4165 29.7285 22.8843 30.1371 21.7606C30.2392 21.352 30.4435 20.9434 30.8521 20.8412V20.6369C26.6639 20.6369 27.8897 20.5348 27.8897 21.1477Z" fill="#7A6E67"/>
</g>
<defs>
<clipPath id="clip0_1008_536">
<rect width="50.7692" height="50.7692" fill="white" transform="translate(0.615356 0.615234)"/>
</clipPath>
</defs>
</svg>
