<?xml version="1.0" encoding="utf-8"?>
<!-- Generator: Adobe Illustrator 23.1.0, SVG Export Plug-In . SVG Version: 6.00 Build 0)  -->
<svg version="1.1" id="common_logo-mobile" xmlns="http://www.w3.org/2000/svg" xmlns:xlink="http://www.w3.org/1999/xlink" x="0px"
	 y="0px" viewBox="0 0 1184.4 421.8" style="enable-background:new 0 0 1184.4 421.8;" xml:space="preserve">
<style type="text/css">
	.st0{fill-rule:evenodd;clip-rule:evenodd;}
	.st1{fill-rule:evenodd;clip-rule:evenodd;fill:#565656;}
</style>
<g id="ugid661">
	<g id="ugid662" transform="translate(-20.000000, -32.000000)">
		<g id="ugid663" transform="translate(20.000000, 32.000000)">
			<g>
				<g id="ugid665">
					<g id="ugid666">
						<path id="ugid667" class="st0" d="M180.9,166V79.1c0-24.6-13.2-36.3-35.3-36.3c-18.4,0-34.3,11-41.3,21.9
							C99.8,51,88.6,42.8,70.9,42.8c-18.4,0-34.3,11.4-39.3,18.7V45.8H0V166h31.6V85.1c4.7-6.7,13.9-14.2,24.9-14.2
							c12.9,0,17.9,8,17.9,19.2V166h31.9V84.9c4.5-6.5,13.7-13.9,24.9-13.9c12.9,0,17.9,8,17.9,19.2V166H180.9z M267.8,169
							c-39.6,0-63.5-28.9-63.5-63.2c0-34.1,23.9-63,63.5-63c39.8,0,63.7,28.9,63.7,63C331.5,140.1,307.6,169,267.8,169z
							 M267.8,140.9c19.7,0,30.9-16.2,30.9-35.1c0-18.7-11.2-34.8-30.9-34.8s-30.6,16.2-30.6,34.8
							C237.2,124.7,248.1,140.9,267.8,140.9z M467.7,166V81.1c0-23.4-12.7-38.3-39.1-38.3c-19.7,0-34.3,9.5-42.1,18.7V45.8h-31.6
							V166h31.6V85.1c5.2-7.2,14.9-14.2,27.4-14.2c13.4,0,22.2,5.7,22.2,22.4V166H467.7z M554.8,169c-39.6,0-63.5-28.9-63.5-63.2
							c0-34.1,23.9-63,63.5-63c39.8,0,63.7,28.9,63.7,63C618.5,140.1,594.6,169,554.8,169z M554.8,140.9c19.7,0,30.9-16.2,30.9-35.1
							c0-18.7-11.2-34.8-30.9-34.8c-19.7,0-30.6,16.2-30.6,34.8C524.1,124.7,535.1,140.9,554.8,140.9z M673.5,127.4
							c5.2,7.7,16.9,13.4,27.1,13.4c18.4,0,30.6-13.9,30.6-34.8S719,70.9,700.6,70.9c-10.2,0-21.9,6-27.1,13.9V127.4z M673.5,166
							h-31.6V0h31.6v61.2c9.5-12.2,22.9-18.4,37.1-18.4c30.6,0,53.3,23.9,53.3,63.2c0,40.1-22.9,63-53.3,63
							c-14.4,0-27.6-6.5-37.1-18.4V166z M891.5,166h-31.6v-12.4c-8.2,9.7-22.4,15.4-38.1,15.4c-19.2,0-41.8-12.9-41.8-39.8
							c0-28.1,22.6-38.8,41.8-38.8c15.9,0,30.1,5.2,38.1,14.7V88.9c0-12.2-10.5-20.2-26.4-20.2c-12.9,0-24.9,4.7-35.1,14.2
							l-11.9-21.2c14.7-12.9,33.6-18.9,52.5-18.9c27.4,0,52.5,11,52.5,45.5V166z M834.5,147.6c10.2,0,20.2-3.5,25.4-10.5v-14.9
							c-5.2-7-15.2-10.5-25.4-10.5c-12.4,0-22.6,6.5-22.6,18.2C811.9,141.1,822.1,147.6,834.5,147.6z M1035.6,166V81.1
							c0-23.4-12.7-38.3-39.1-38.3c-19.7,0-34.3,9.5-42.1,18.7V45.8h-31.6V166h31.6V85.1c5.2-7.2,14.9-14.2,27.4-14.2
							c13.4,0,22.2,5.7,22.2,22.4V166H1035.6z M1184.4,166l-49-65.7l47.5-54.5h-38.8l-45.5,53.5V0H1067v166h31.6v-30.9l14.4-15.4
							l31.9,46.3H1184.4z"/>
					</g>
					<g id="ugid664" transform="translate(0.000000, 24.000000)">
						<polyline id="ugid669" class="st1" points="1101,273.8 1123.5,273.8 1123.5,345.6 1124.8,345.6 1154.2,311.1 1175,311 
							1142.8,348.7 1181.6,395.9 1155.6,395.9 1123.9,352 1123.5,352 1123.5,395.9 1101,395.9 1101,273.8 						"/>
						<path id="ugid670" class="st1" d="M27.7,279.2v67c0,22.8,6.8,35.3,25.7,35.3c18.1,0,25.4-15.1,25.4-34v-68.3h21.3v72.4
							c0,29.5-19.3,46.1-47.4,46.1c-32.1,0-48.8-15.5-48.8-47.3v-71.3H27.7"/>
						<path id="ugid671" class="st1" d="M150,322.4c7.6-8,18.3-11.8,28.9-11.8c19.8,0,30.3,10.6,30.3,31.6v53.6h-22.4v-51.1
							c0-11.7-5.2-19.3-16.9-19.3c-11,0-19.6,7.2-19.6,20.8v49.6h-22.5v-83.3H150V322.4"/>
						<path id="ugid672" class="st1" d="M235.6,395.8h22.5v-83.3h-22.5V395.8z M233.4,287.5c0-6.3,5.4-12.8,13-12.8
							c7.8,0,13.8,6.3,13.8,12.8c0,7.2-5.2,14-13.5,14C238.8,301.5,233.4,294.7,233.4,287.5z"/>
						<path id="ugid673" class="st1" d="M307.8,395.8l-36-83.6h23.8c7.3,19.2,14.8,37.2,21.9,60.3h0.3c7.6-23.1,14.8-41.2,22.6-60.3
							h21.1l-38.1,83.6H307.8"/>
						<path id="ugid674" class="st1" d="M428.5,344.2c0.9-12.7-3.7-21.3-14.8-21.3c-12.9,0-18.7,10.2-18.4,21.3H428.5z M394.9,356.2
							c-0.5,15.7,10.7,27.3,24.7,27.3c8.3,0,17.1-2.8,22.7-6.7l6.4,11.7c-11.5,6.7-23.5,9.3-33.2,9.3c-25.5,0-44.6-17.8-44.6-45.3
							c0-25.7,18.9-42,43.1-42c26.4,0,37.4,20.8,35.7,45.6H394.9z"/>
						<path id="ugid675" class="st1" d="M493.8,327.2h0.3l4.6-6.5c2.5-3.7,7.6-10.1,14.5-10.1c5.1,0,10.5,2.7,15.3,7.5l-8.5,15.3
							c-3.7-1.9-6.1-2.8-10.6-2.8c-7.8,0-15.4,6.2-15.4,24.1v41.1h-22.6v-83.3h22.4V327.2"/>
						<path id="ugid676" class="st1" d="M588.5,328.2c-5.1-3.7-10.3-5.3-14.4-5.3c-5.1,0-10.1,2.8-10.1,8.5
							c0,6.7,8.1,10.5,17.6,17.3c12,8.9,15.6,17.5,15.6,25.1c0,11.7-13,24-31.6,24c-11.7,0-20.3-4-28.2-9.5l7.1-11.5
							c5,4,12.3,8,18.4,8c6.5,0,12.2-3.3,12.2-10.3c0-7.8-8.8-12.2-16.9-17.8c-9.6-6.5-16.2-12.8-16.2-23.1c0-13.2,12.8-23,29.4-23
							c9.3,0,18.4,2.3,24.6,7.7L588.5,328.2"/>
						<path id="ugid677" class="st1" d="M652.6,351.5c-11,3.5-16.6,9.7-16.6,19.1c0,7.3,4.7,12.3,10.2,12.3c8.9,0,20.6-11,18.9-35.5
							L652.6,351.5z M659.7,387.8c-6.1,5-13.9,10-21.6,10c-13.2,0-24.2-10-24.2-25.3c0-15.8,11.7-24.7,31.3-30.3l20-5.8
							c-1.2-7.6-8.1-12.5-15.4-12.5c-9.7,0-16.4,3.5-22.4,8.5l-7.3-10.5c10.5-8.5,20.8-11.3,32.5-11.3c15.6,0,34.7,5,34.7,31v34
							c0,6.7,0.8,14.5,3.6,20.3H667c-1.7-2.8-2.2-7.6-2.2-12.2L659.7,387.8z"/>
						<polygon id="ugid678" class="st1" points="712.5,395.8 735,395.8 735,273.4 712.5,273.4 						"/>
						<path id="ugid679" class="st1" d="M934.2,351.5c-11,3.5-16.6,9.7-16.6,19.1c0,7.3,4.7,12.3,10.2,12.3c8.9,0,20.6-11,19-35.5
							L934.2,351.5z M941.3,387.8c-6.1,5-13.8,10-21.6,10c-13.2,0-24.2-10-24.2-25.3c0-15.8,11.7-24.7,31.3-30.3l20-5.8
							c-1.2-7.6-8.1-12.5-15.5-12.5c-9.6,0-16.4,3.5-22.3,8.5l-7.3-10.5c10.5-8.5,20.8-11.3,32.5-11.3c15.5,0,34.6,5,34.6,31v34
							c0,6.7,0.8,14.5,3.5,20.3h-23.8c-1.7-2.8-2.2-7.6-2.2-12.2L941.3,387.8z"/>
						<path id="ugid680" class="st1" d="M1016.4,322.4c7.6-8,18.3-11.8,28.9-11.8c19.8,0,30.3,10.6,30.3,31.6v53.6h-22.5v-51.1
							c0-11.7-5.3-19.3-16.9-19.3c-11,0-19.6,7.2-19.6,20.8v49.6h-22.5v-83.3h22.3V322.4"/>
						<path id="ugid681" class="st1" d="M817.1,381.8h12.2c13.2,0,23.2-6.8,23.2-19.8c0-13.7-10.3-19.5-23.3-19.5h-12V381.8z
							 M817.1,328.2h7.5c13.7,0,23-8.7,23-19.5c0-10.3-7.8-14.8-18.1-14.8h-12.4V328.2z M793.3,396.1V279.5h42.8
							c19.9,0,34,9,34,24.8c0,18.6-15.4,26.3-23.7,28.5v0.3c14.7,0.7,31.1,10.7,31.1,28.5c0,20.1-17.1,34.5-45,34.5H793.3z"/>
					</g>
				</g>
			</g>
		</g>
	</g>
</g>
</svg>
